<svg width="438pt" height="44pt" viewBox="0.00 0.00 438.48 44.00" xmlns="http://www.w3.org/2000/svg" xmlns:xlink="http://www.w3.org/1999/xlink">
<g id="graph0" class="graph" transform="scale(1 1) rotate(0) translate(4 40)">
<polygon fill="white" stroke="none" points="-4,4 -4,-40 434.48,-40 434.48,4 -4,4"/>
<!-- step1 -->
<g id="node1" class="node">
<title>step1</title>
<g id="a_node1"><a xlink:title="Review the submitted document">
<polygon fill="#4caf50" stroke="black" points="129.6,-36 0,-36 0,0 129.6,0 129.6,-36"/>
<text text-anchor="middle" x="64.8" y="-13.8" font-family="Arial" font-size="14.00" fill="white">Document Review</text>
</a>
</g>
</g>
<!-- step2 -->
<g id="node2" class="node">
<title>step2</title>
<g id="a_node2"><a xlink:title="Manager approval of the document">
<polygon fill="#2196f3" stroke="black" points="296,-36 165.6,-36 165.6,0 296,0 296,-36"/>
<text text-anchor="middle" x="230.8" y="-13.8" font-family="Arial" font-size="14.00" fill="white">Manager Approval</text>
</a>
</g>
</g>
<!-- step1&#45;&gt;step2 -->
<g id="edge1" class="edge">
<title>step1-&gt;step2</title>
<g id="a_edge1"><a xlink:title="From Document Review to Manager Approval">
<path fill="none" stroke="#4caf50" d="M129.68,-18C137.62,-18 145.81,-18 153.91,-18"/>
<polygon fill="#4caf50" stroke="#4caf50" points="153.77,-21.5 163.77,-18 153.77,-14.5 153.77,-21.5"/>
</a>
</g>
</g>
<!-- step3 -->
<g id="node3" class="node">
<title>step3</title>
<g id="a_node3"><a xlink:title="Final sign-off by executive">
<polygon fill="none" stroke="black" points="430.48,-36 332,-36 332,0 430.48,0 430.48,-36"/>
<text text-anchor="middle" x="381.24" y="-13.8" font-family="Arial" font-size="14.00">Final Sign-off</text>
</a>
</g>
</g>
<!-- step2&#45;&gt;step3 -->
<g id="edge2" class="edge">
<title>step2-&gt;step3</title>
<g id="a_edge2"><a xlink:title="From Manager Approval to Final Sign-off">
<path fill="none" stroke="#9e9e9e" d="M296.48,-18C304.45,-18 312.58,-18 320.48,-18"/>
<polygon fill="#9e9e9e" stroke="#9e9e9e" points="320.34,-21.5 330.34,-18 320.34,-14.5 320.34,-21.5"/>
</a>
</g>
</g>
</g>
</svg>